<mxfile host="app.diagrams.net" modified="2023-07-26T02:33:29.314Z" agent="Mozilla/5.0 (Windows NT 10.0; Win64; x64; rv:109.0) Gecko/20100101 Firefox/116.0" version="21.6.5" etag="JgZwyRjVBNRkLVxyRX97" type="github">
  <diagram name="第 1 页" id="fnpuxDx_KaEOnfukitEH">
    <mxGraphModel>
      <root>
        <mxCell id="0" />
        <mxCell id="1" parent="0" />
      </root>
    </mxGraphModel>
  </diagram>
</mxfile>
